<?xml version="1.0" encoding="utf-8"?>
<!-- Svg Vector Icons : http://www.onlinewebfonts.com/icon -->
<!DOCTYPE svg PUBLIC "-//W3C//DTD SVG 1.1//EN" "http://www.w3.org/Graphics/SVG/1.1/DTD/svg11.dtd">
<svg version="1.1" xmlns="http://www.w3.org/2000/svg" xmlns:xlink="http://www.w3.org/1999/xlink" x="0px" y="0px" viewBox="0 0 1000 1000" enable-background="new 0 0 1000 1000" xml:space="preserve">
<metadata> Svg Vector Icons : http://www.onlinewebfonts.com/icon </metadata>
<g><g transform="translate(0.000000,512.000000) scale(0.100000,-0.100000)"><path d="M830.1,4999.2c-334.9-65.1-644.9-380.8-710-723.4c-26.8-139.7-26.8-8165.7,0-8309.2c65.1-350.2,373.2-658.3,725.3-725.3c141.6-26.8,8167.6-26.8,8309.2,0c350.2,67,658.3,375.1,725.3,725.3c26.8,141.6,26.8,8167.6,0,8309.2c-67,352.1-375.1,660.2-725.3,725.3C9026.4,5026,952.5,5024.1,830.1,4999.2z M1631.9,3795.5l306.2-612.4h-612.4H713.3v486.1c0,505.2,7.7,558.8,82.3,641.1c68.9,74.6,143.5,95.7,342.6,97.6h187.5L1631.9,3795.5z M4081.4,3795.5l306.2-612.4h-612.4h-612.4l-306.2,612.4l-306.2,612.4h612.4h612.4L4081.4,3795.5z M6530.9,3795.5l306.2-612.4h-612.4h-612.4l-306.2,612.4L5000,4407.8h612.4h612.4L6530.9,3795.5z M8980.5,3795.5l306.2-612.4h-612.4h-612.4l-306.2,612.4l-306.2,612.4h612.4h612.4L8980.5,3795.5z M9282.8-699.8c-5.7-3270.5-5.7-3272.4-45.9-3324.1c-21.1-28.7-63.2-70.8-91.9-91.9l-51.7-40.2H5000H906.6l-51.7,40.2c-28.7,21.1-70.8,63.2-91.9,91.9c-40.2,51.7-40.2,53.6-45.9,3324.1l-3.8,3270.5H5000h4286.6L9282.8-699.8z"/><path d="M3382.9,1106.7c-95.7-34.4-172.2-122.5-199-229.6c-30.6-120.6-28.7-3232.2,0-3350.9c45.9-178,210.5-277.5,388.5-237.3c49.7,11.5,836.3,392.3,1749.1,849.7C7149.1-948.6,7124.2-962,7124.2-797.4c0,164.6,26.8,149.3-1827.6,1073.6c-1081.2,539.7-1710.8,842-1760.6,849.7C3493.9,1129.7,3425,1122,3382.9,1106.7z"/></g></g>
</svg>