<?xml version="1.0" standalone="no"?>
<!DOCTYPE svg PUBLIC "-//W3C//DTD SVG 20010904//EN"
 "http://www.w3.org/TR/2001/REC-SVG-20010904/DTD/svg10.dtd">
<svg version="1.0" xmlns="http://www.w3.org/2000/svg"
 width="700.000000pt" height="700.000000pt" viewBox="0 0 700.000000 700.000000"
 preserveAspectRatio="xMidYMid meet">
<metadata>
Created by potrace 1.14, written by Peter Selinger 2001-2017
</metadata>
<g transform="translate(0.000000,700.000000) scale(0.100000,-0.100000)"
fill="#000000" stroke="none">
<path d="M2857 6434 c-1 -1 -58 -4 -127 -8 -69 -3 -141 -8 -160 -11 -55 -9
-202 -34 -230 -40 -14 -3 -34 -7 -45 -9 -11 -2 -40 -9 -65 -16 -25 -7 -54 -14
-64 -16 -50 -9 -232 -70 -330 -110 -137 -56 -238 -105 -346 -168 -47 -27 -94
-54 -105 -60 -26 -15 -139 -89 -145 -96 -3 -3 -30 -24 -60 -45 -65 -47 -79
-59 -179 -146 -356 -310 -640 -716 -807 -1154 -4 -11 -8 -22 -8 -25 -1 -3 -4
-9 -7 -15 -27 -42 -106 -344 -134 -505 -9 -52 -18 -106 -20 -119 -13 -76 -20
-211 -20 -391 0 -205 9 -332 29 -445 3 -16 8 -48 12 -70 11 -76 63 -281 99
-393 157 -486 456 -944 836 -1278 105 -92 118 -104 212 -173 336 -249 711
-419 1127 -511 47 -10 102 -21 123 -24 20 -3 52 -8 70 -11 171 -28 346 -30
2172 -29 2073 1 1937 -3 2059 61 113 61 217 201 245 330 35 166 -30 361 -156
473 -45 39 -142 91 -198 105 -16 5 -37 10 -45 12 -8 2 -337 5 -730 7 -393 2
-716 4 -718 4 -1 1 35 48 80 105 139 174 262 371 358 572 42 88 129 304 135
336 2 9 10 37 19 62 38 111 96 385 111 524 22 199 23 564 1 678 -2 11 -7 43
-10 70 -44 343 -172 721 -356 1050 -55 99 -247 376 -279 405 -3 3 -35 39 -71
80 -219 254 -531 500 -840 661 -216 113 -510 221 -719 264 -65 14 -240 44
-281 49 -105 13 -424 28 -433 20z m267 -473 c279 -77 484 -294 542 -574 82
-392 -161 -777 -555 -878 -394 -100 -796 140 -906 541 -18 66 -26 253 -12 315
3 17 9 43 12 60 20 96 104 245 188 333 109 114 294 208 442 224 83 9 215 0
289 -21z m-1810 -1716 c74 -8 193 -51 271 -97 83 -49 206 -170 254 -251 204
-346 114 -779 -211 -1007 -190 -134 -443 -172 -661 -99 -317 106 -525 400
-516 732 8 305 193 568 479 681 25 10 52 19 60 21 8 2 35 8 60 14 74 18 155
20 264 6z m3464 2 c103 -18 233 -69 314 -125 124 -85 223 -219 288 -387 36
-91 43 -297 15 -405 -68 -263 -256 -463 -510 -543 -74 -24 -130 -31 -235 -30
-285 3 -535 164 -660 425 -93 194 -99 431 -14 616 13 29 24 54 24 57 0 2 18
30 39 62 126 188 326 308 561 335 32 4 143 0 178 -5z m-1730 -467 c72 -32 119
-76 152 -144 95 -192 -38 -421 -249 -431 -186 -8 -336 146 -317 326 21 202
232 329 414 249z m-43 -1264 c209 -16 404 -127 536 -306 109 -147 162 -362
135 -546 -9 -58 -44 -176 -56 -188 -5 -5 -10 -16 -10 -24 0 -41 -139 -214
-230 -284 -51 -41 -185 -104 -260 -124 -67 -18 -251 -25 -320 -12 -275 50
-512 266 -590 538 -27 93 -33 252 -14 342 46 224 180 408 374 516 74 42 192
79 270 88 36 3 67 8 68 10 2 1 9 1 15 -1 7 -2 44 -6 82 -9z"/>
</g>
</svg>
